# xmcd
#
# Track frame offsets:
#	150
#	13000
#	27610
#	39690
#	52340
#	64790
#	82785
#	96845
#	107430
#	121325
#	143550
#	156930
#
# Disc length: 2300 seconds
# Revision: 0
# Processed by: cddbd v1.5.2PL0 Copyright (c) Steve Scherf et al.
# Submitted via: dBpowerAMP V12.0
#
DISCID=9c08fa0c
DTITLE=Keystone Crossing - Crossing Paths
DYEAR=1998
DGENRE=Country
TTITLE0=The Weary Lonesome Blues
TTITLE1=My Baby's Gone
TTITLE2=Devoted to You
TTITLE3=What Was I Supposed to Do
TTITLE4=The Great Atomic Power
TTITLE5=Green Rolling Hills
TTITLE6=The Angels Rejoiced Last Night
TTITLE7=Midnight Train
TTITLE8=So Sad (To Watch Good Love Go Bad)
TTITLE9=When You and I Were Young Maggie
TTITLE10=Just Rehearsing
TTITLE11=We Believe in Happy Endings
EXTD=
EXTT0=
EXTT1=
EXTT2=
EXTT3=
EXTT4=
EXTT5=
EXTT6=
EXTT7=
EXTT8=
EXTT9=
EXTT10=
EXTT11=
PLAYORDER=
